<svg width="234" height="167" viewBox="0 0 234 167" fill="none" xmlns="http://www.w3.org/2000/svg">
<path d="M97.7946 2.74825C66.1884 12.6912 57.2035 -15.3032 31.5129 13.2897C5.82236 41.8826 4.33329 71.7948 26.6505 85.2435C48.9677 98.6922 15.7467 127.699 43.254 140.113C70.7613 152.527 95.155 100.554 116.434 75.726C137.713 50.8976 129.401 13.2897 129.401 13.2897C129.401 13.2897 129.401 -7.19471 97.7946 2.74825Z" fill="#856F6F"/>
<path d="M103.159 101.685C87.6591 96.1846 7.65911 98.1848 1.1591 116.685C-5.34091 135.185 16.6591 140.705 38.1591 147.205C59.6591 153.705 63.1591 159.185 89.6591 165.185C116.159 171.185 114.5 145.705 131 147.205C147.5 148.705 161.5 116.685 161.5 116.685C161.5 116.685 118.659 107.185 103.159 101.685Z" fill="#F4F0E2"/>
<path d="M203.027 7.2533C181.189 23.8716 134.748 -16.3185 128.479 19.3397C122.21 54.9979 46.7385 94.7433 67.4749 107.272C88.2113 119.801 124.004 106.73 149.563 118.295C175.122 129.86 200.574 98.3681 220.346 75.2383C240.118 52.1086 232.394 17.0735 232.394 17.0735C232.394 17.0735 224.864 -9.365 203.027 7.2533Z" fill="#5F3716"/>
</svg>
