<svg width="24" height="24" viewBox="0 0 24 24" fill="none" xmlns="http://www.w3.org/2000/svg">
<path fill-rule="evenodd" clip-rule="evenodd" d="M6.0219 8.2325L3.19598 2H18.4012L6.0219 8.2325ZM4.23404 9.13262L2 4.20548V10.2574L4.23404 9.13262ZM6.13412 13.3232L3.2308 11.8769L5.06062 10.9556L6.13412 13.3232ZM2 13.4982L7.44286 16.2096L10.0683 22H2V13.4982ZM13.0149 18.9854L10.2796 17.6228L11.9299 21.2624L13.0149 18.9854ZM13.8753 17.1796L8.97085 14.7364L6.84848 10.0555L20.5592 3.15273L13.8753 17.1796ZM14.8053 19.8773L13.7939 22H19.0662L14.8053 19.8773ZM15.6658 18.0716L22 4.7784V21.2271L15.6658 18.0716ZM22 24H2H0V22V2V0H2H22H24V2V22V24H22Z" fill="#937E7E"/>
</svg>
